<?xml version="1.0" encoding="UTF-8"?>

<svg xmlns="http://www.w3.org/2000/svg"
	xmlns:xlink="http://www.w3.org/1999/xlink" height="32" viewBox="0 0 28 32">
	<title>
    Portfolio
	</title>

	<path fill="#d80027" d="M5.34 32L4 31.12 2.67 32v-4.44h2.67z"/>
	<path fill="#ffda44" d="M23.11 10.38h4.44v18.95h-4.44z"/>
	<path fill="#ff5023" d="M23.11 10.38h4.44v13.09h-4.44z"/>
	<path fill="#d80027" d="M23.11 10.38h4.44v7.22h-4.44z"/>
	<path fill="#6c0014" d="M23.11 5.87h4.44v5.87h-4.44z"/>
	<path d="M23.11 0h4.44v5.87h-4.44z"/>
	<path fill="#acabb1" d="M2.67 0h23.11v29.33H2.67z"/>
	<path fill="#818085" d="M1.78 0h12.44v29.33H1.78z"/>
	<path d="M0 0h2.67v29.33H0zm5.94 13.75V9.78h1.71c.19 0 .37.04.54.12.16.08.3.18.42.31s.21.28.28.44c.06.17.1.34.1.51s-.04.34-.1.51a1.5 1.5 0 0 1-.26.44c-.12.13-.26.23-.42.31-.16.07-.34.11-.53.11h-.65v1.22H5.94h0zm1.09-2.17h.58c.06 0 .13-.03.18-.09.06-.06.09-.17.09-.33 0-.17-.03-.28-.1-.34s-.14-.09-.2-.09h-.55v.85z"/>
	<use xlink:href="#B"/>
	<path d="M13.87 13.75V9.78h1.82c.2 0 .37.04.54.12.16.08.3.18.42.31s.21.28.28.44c.06.17.1.34.1.51a1.4 1.4 0 0 1-.15.64c-.1.2-.24.36-.42.49l.84 1.46h-1.23l-.7-1.22h-.41v1.22h-1.09 0zm1.09-2.17h.69c.06 0 .13-.04.18-.11.06-.08.09-.18.09-.31 0-.14-.03-.25-.1-.32s-.13-.11-.2-.11h-.66v.85h0z"/>
	<path d="M20.76 10.73h-1.14v3.02h-1.09v-3.02h-1.15v-.95h3.38v.95h0zM5.94 18.65v-3.97h2.72v.95H7.03v.66h1.33v.88H7.03v1.48H5.94h0zm4.97.03c-.31 0-.58-.05-.83-.17a2.2 2.2 0 0 1-.63-.45c-.17-.19-.31-.41-.4-.65-.1-.24-.15-.49-.15-.75s.05-.51.15-.75c.1-.25.24-.46.42-.64a2 2 0 0 1 .65-.45c.24-.11.51-.16.81-.16a2 2 0 0 1 .82.17c.25.12.46.27.63.46a2.1 2.1 0 0 1 .41.65c.09.24.14.49.14.74 0 .26-.05.51-.15.76-.1.24-.24.45-.42.63-.18.19-.39.33-.64.45-.25.11-.52.16-.81.16zm-.9-2.01a1.6 1.6 0 0 0 .05.39c.04.13.1.24.17.33.07.1.17.18.28.24.12.06.25.09.41.09.15 0 .29-.03.41-.09.11-.07.21-.15.28-.24.07-.1.12-.22.16-.34.04-.13.05-.26.05-.39s-.02-.26-.05-.39c-.04-.12-.1-.23-.17-.33-.08-.09-.17-.17-.29-.23-.11-.05-.24-.08-.4-.08-.15 0-.29.03-.4.09-.12.06-.21.14-.29.23-.07.1-.12.21-.16.34a1.2 1.2 0 0 0-.05.38zm3.47 1.98v-3.97h1.09v3.02h1.8v.95h-2.89zm3.36 0v-3.97h1.09v3.97h-1.09z"/>
	<use xlink:href="#B" x="9.18" y="4.9"/>
	<defs >
		<path id="B" d="M11.3 13.78c-.31 0-.58-.05-.83-.17a2.2 2.2 0 0 1-.63-.45c-.17-.19-.31-.41-.4-.65-.1-.24-.15-.49-.15-.75s.05-.51.15-.75c.1-.25.24-.46.42-.64a2 2 0 0 1 .65-.45c.24-.11.51-.16.81-.16a2 2 0 0 1 .82.17c.25.12.46.27.63.46a2.1 2.1 0 0 1 .41.65c.09.24.14.49.14.74 0 .26-.05.51-.15.76-.1.24-.24.45-.42.63-.18.19-.39.33-.64.45-.25.11-.52.16-.81.16zm-.9-2.01a1.6 1.6 0 0 0 .05.39c.04.13.1.24.17.33.07.1.17.18.28.24.12.06.25.09.41.09.15 0 .29-.03.41-.09.11-.07.21-.15.28-.24.07-.1.12-.22.16-.34.04-.13.05-.26.05-.39s-.02-.26-.05-.39c-.04-.12-.1-.23-.17-.33-.08-.09-.17-.17-.29-.23-.11-.05-.25-.08-.4-.08s-.29.03-.4.09c-.12.06-.21.14-.29.23-.07.1-.12.21-.16.34a1.2 1.2 0 0 0-.05.38z"/>
	</defs>
</svg>