<?xml version="1.0" encoding="UTF-8"?>

<svg xmlns="http://www.w3.org/2000/svg" height="32" viewBox="0 0 32 32">
  <title>
    LinkedIn
  </title>

  <path fill="currentColor" d="M32 2.35v27.3c0 1.3-1.05 2.35-2.35 2.35H2.35C1.05 32 0 30.95 0 29.65V2.35C0 1.05 1.05 0 2.35 0h27.3C30.95 0 32 1.05 32 2.35zM9.41 12.24h-4.7v15.05h4.7zm.43-5.18a2.7 2.7 0 0 0-.79-1.92c-.5-.52-1.19-.81-1.91-.81h-.08c-1.51 0-2.73 1.22-2.73 2.73s1.22 2.73 2.73 2.73h0c.72.02 1.41-.25 1.93-.75.53-.49.83-1.18.85-1.9zm17.45 11.09c0-4.53-2.88-6.29-5.74-6.29-1.9-.1-3.72.83-4.76 2.43h-.13v-2.05h-4.42v15.05h4.7v-8.01c-.14-1.7 1.12-3.21 2.82-3.36h.18c1.5 0 2.61.94 2.61 3.31v8.06h4.71z"/>
</svg>
