<?xml version="1.0" encoding="UTF-8"?>

<svg xmlns="http://www.w3.org/2000/svg" height="32" viewBox="0 0 29 32">
  <title>
    ElasticSearch
  </title>

  <path fill="#f0bf1a" d="M1.6 8.94h21.11a7.5 7.5 0 0 0 5.79-2.73C25.6 2.44 21.03 0 15.9 0A15.9 15.9 0 0 0 1.6 8.94"/>
  <path fill="#07a5de" d="M20.92 11.43H.64A16.1 16.1 0 0 0 0 15.9c0 1.56.23 3.05.64 4.47h20.28a4.5 4.5 0 0 0 4.47-4.47c0-2.48-1.99-4.47-4.47-4.47"/>
  <path fill="#3ebeb0" d="M28.56 25.51c-1.39-1.62-3.45-2.66-5.76-2.66H1.6a15.9 15.9 0 0 0 14.3 8.94c5.17 0 9.75-2.46 12.66-6.28"/>
  <path fill="#231f20" d="M.64 11.43A16.1 16.1 0 0 0 0 15.9c0 1.56.23 3.05.64 4.47h13.27a17.7 17.7 0 0 0 .55-4.47 17.7 17.7 0 0 0-.55-4.47H.64z"/>
  <path fill="#d7a229" d="M7.9 2.14C5.22 3.73 2.98 6.11 1.59 8.95h11.73A17.4 17.4 0 0 0 7.9 2.14"/>
  <path fill="#019b8f" d="M8.4 29.9a17.7 17.7 0 0 0 5.26-7.05H1.59c1.49 2.98 3.88 5.47 6.81 7.05"/>
</svg>
