<?xml version="1.0" encoding="UTF-8"?>

<svg xmlns="http://www.w3.org/2000/svg" height="32" viewBox="0 0 32 32">
  <title>
    JavaScript
  </title>

  <path fill="currentColor" d="M0 0h32v32H0V0zm29.38 24.37c-.23-1.46-1.19-2.69-4.01-3.83-.98-.46-2.07-.78-2.39-1.52-.12-.44-.14-.68-.06-.94.2-.86 1.22-1.12 2.02-.88.52.16 1 .56 1.3 1.2l2.34-1.5c-.36-.56-.54-.8-.78-1.04-.84-.94-1.96-1.42-3.78-1.38l-.94.12a4.3 4.3 0 0 0-2.28 1.34 4.2 4.2 0 0 0 .76 5.96c1.82 1.36 4.48 1.66 4.82 2.94.32 1.56-1.16 2.06-2.62 1.88-1.08-.24-1.68-.78-2.34-1.78l-2.44 1.4c.28.64.6.92 1.08 1.48 2.32 2.34 8.12 2.22 9.16-1.34.04-.12.32-.94.1-2.2l.06.09zM17.4 14.71h-3l-.01 7.74c0 1.64.09 3.15-.18 3.61-.44.92-1.58.8-2.09.64-.53-.26-.8-.62-1.11-1.14-.08-.14-.14-.26-.17-.26l-2.43 1.5a4.7 4.7 0 0 0 1.77 2.02c1.14.68 2.67.9 4.27.54 1.05-.3 1.95-.92 2.42-1.88.68-1.24.53-2.76.53-4.46v-8.24-.07z"/>
</svg>
