<?xml version="1.0" encoding="UTF-8"?>

<svg xmlns="http://www.w3.org/2000/svg" height="32" viewBox="0 0 32 20">
  <title>
    Next JS
  </title>

  <path fill="currentColor" d="M7.53 5h6.02v.48H8.08v3.58h5.15v.48H8.08v3.93h5.54v.48H7.53V5zm6.56 0h.64l2.84 3.94L20.47 5l3.94-5-6.48 9.35 3.34 4.6h-.67l-3.03-4.19-3.05 4.19h-.65l3.36-4.6L14.09 5zm7.42.48V5h6.86v.48h-3.16v8.47h-.55V5.48h-3.15zM0 5h.69l9.52 14.17-3.94-5.22L.58 5.68.55 13.95H0zm28.32 8.33c.11 0 .19-.09.19-.2s-.08-.2-.19-.2c-.12 0-.2.09-.2.2s.08.2.2.2zm.54-.52c0 .33.24.54.59.54.37 0 .6-.22.6-.61v-1.36h-.3v1.36c0 .22-.11.33-.3.33-.17 0-.29-.1-.29-.26h-.3zm1.58-.02c.02.34.31.56.74.56.46 0 .75-.23.75-.6 0-.29-.16-.45-.56-.54l-.22-.05c-.25-.06-.35-.14-.35-.28 0-.17.16-.29.4-.29.22 0 .38.12.41.29h.29c-.02-.32-.31-.55-.7-.55-.42 0-.7.23-.7.57 0 .29.16.45.51.54l.25.06c.25.06.36.15.36.29 0 .17-.17.3-.41.3-.26 0-.44-.12-.47-.3h-.3z"/>
</svg>
