<?xml version="1.0" encoding="UTF-8"?>

<svg xmlns="http://www.w3.org/2000/svg" height="32" viewBox="0 0 32 29">
  <title>
    React
  </title>

  <path fill="currentColor" d="M13.08 14.15c0-1.58 1.27-2.85 2.85-2.85 1.57 0 2.84 1.27 2.84 2.85 0 1.57-1.27 2.84-2.84 2.84-1.58 0-2.85-1.27-2.85-2.84z"/>
  <g stroke="currentColor" fill="none" stroke-width="1.37">
    <path d="M15.93 8.36a31.9 31.9 0 0 1 10.04 1.47c3.23 1.11 5.21 2.79 5.21 4.32 0 1.59-2.1 3.37-5.57 4.51-2.61.88-6.05 1.33-9.68 1.33-3.72 0-7.24-.43-9.89-1.33C2.7 17.51.68 15.7.68 14.15c0-1.52 1.89-3.18 5.07-4.3 2.69-.93 6.33-1.49 10.18-1.49z"/>
    <path d="M10.89 11.27c1.91-3.31 4.16-6.11 6.29-7.97C19.75 1.06 22.2.19 23.52.95c1.38.79 1.87 3.5 1.14 7.07-.56 2.7-1.89 5.91-3.7 9.06-1.86 3.22-3.98 6.05-6.09 7.89-2.66 2.33-5.24 3.18-6.59 2.4-1.31-.76-1.81-3.23-1.18-6.54.53-2.79 1.86-6.22 3.79-9.56z"/>
    <path d="M10.9 17.08c-1.91-3.3-3.21-6.65-3.76-9.43-.65-3.34-.19-5.9 1.13-6.66 1.37-.8 3.97.12 6.7 2.55 2.06 1.83 4.18 4.58 5.99 7.72 1.87 3.22 3.26 6.47 3.81 9.22.68 3.47.13 6.12-1.22 6.9-1.31.76-3.7-.04-6.25-2.24-2.16-1.85-4.46-4.72-6.4-8.06z"/>
  </g>
</svg>
