<?xml version="1.0" encoding="UTF-8"?>

<svg xmlns="http://www.w3.org/2000/svg" height="32" viewBox="0 0 32 32">
  <title>
    TypeScript
  </title>

  <path fill="currentColor" d="M0 16v16h32V0H0zm25.79-1.27c.77.17 1.46.58 2 1.15a4.8 4.8 0 0 1 .76 1.02c.02.05-1.38.98-2.22 1.5-.03.02-.15-.11-.29-.31-.31-.54-.88-.88-1.5-.91-.97-.06-1.6.45-1.59 1.3 0 .25.03.39.13.59.22.44.62.71 1.86 1.25 2.29.99 3.27 1.64 3.88 2.56.68 1.04.83 2.68.37 3.91-.51 1.32-1.77 2.23-3.54 2.53a9.5 9.5 0 0 1-2.44-.03 5.8 5.8 0 0 1-3.25-1.69 4.8 4.8 0 0 1-.83-1.24 3.6 3.6 0 0 1 .29-.19l1.19-.68.92-.54.19.29c.33.46.74.86 1.22 1.16 1.02.55 2.42.46 3.11-.16.29-.23.44-.59.42-.95 0-.37-.05-.53-.24-.81-.25-.35-.76-.66-2.2-1.28-1.65-.72-2.36-1.16-3.01-1.86-.38-.41-.74-1.05-.88-1.6-.12-.45-.16-1.59-.06-2.04a3.9 3.9 0 0 1 3.28-3.04c.81-.1 1.63-.07 2.43.07zm-7.52 1.33l.01 1.31h-4.16V29.2h-2.95V17.37H7.01v-1.29l.03-1.32c.02-.02 2.55-.03 5.63-.02l5.59.02z"/>
</svg>
