<?xml version="1.0" encoding="UTF-8"?>

<svg xmlns="http://www.w3.org/2000/svg" height="32" viewBox="0 0 32 32">
  <title>
    Python
  </title>

  <defs>
    <linearGradient id="A" x1="100.00%" y1="38.87%" x2="0.00%" y2="38.08%">
      <stop offset="0%" stop-color="#366a96"/>
      <stop offset="100%" stop-color="#3679b0"/>
    </linearGradient>
    <linearGradient id="B" x1="100.00%" y1="50.00%" x2="-97.55%" y2="50.00%">
      <stop offset="0%" stop-color="#ffc836"/>
      <stop offset="100%" stop-color="#ffe873"/>
    </linearGradient>
  </defs>

  <path fill="url(#A)" d="M8.25 4.19c0-2.16.6-3.33 3.86-3.89 2.22-.38 5.06-.42 7.71 0 2.09.34 3.85 1.87 3.85 3.89v7.11c0 2.09-1.71 3.8-3.85 3.8h-7.71c-2.62 0-4.82 2.18-4.82 4.64v3.41H4.64c-2.24 0-3.55-1.58-4.1-3.79-.74-2.97-.7-4.74 0-7.58a4.8 4.8 0 0 1 4.82-3.8h10.61v-.95H8.25V4.19z"/>
  <path fill="url(#B)" d="M23.67 26.94c0 2.16-1.91 3.25-3.86 3.8-2.92.82-5.26.69-7.7 0-2.04-.58-3.86-1.77-3.86-3.8v-7.11c0-2.04 1.74-3.79 3.86-3.79h7.7c2.57 0 4.82-2.17 4.82-4.74V7.98h2.89c2.25 0 3.31 1.63 3.86 3.79.77 3 .81 5.25 0 7.59-.78 2.27-1.61 3.79-3.86 3.79H15.96v.95h7.71v2.84z"/>
  <path d="M10.18 3.71c0-.78.65-1.42 1.45-1.42.79 0 1.44.64 1.44 1.42 0 .79-.65 1.43-1.44 1.43-.8 0-1.45-.64-1.45-1.43zm8.68 23.71c0-.79.64-1.42 1.44-1.42s1.45.63 1.45 1.42c0 .78-.65 1.42-1.45 1.42s-1.44-.64-1.44-1.42z"/>
</svg>
