<?xml version="1.0" encoding="UTF-8"?>

<svg xmlns="http://www.w3.org/2000/svg" width="1920" height="1920" viewBox="0 0 1920 1189">
  <title>
    Clouds
  </title>

  <defs>
    <clipPath id="A">
      <path d="M0 0h1192.32v543.79H0z" stroke="none" stroke-linejoin="miter" stroke-linecap="butt" fill="none" stroke-width="1.08" transform="translate(179.79 -.24)"/>
    </clipPath>
    <radialGradient id="B" cx="42%" cy="33%" r="204%" fx="42%" fy="33%">
      <stop stop-color="currentColor" offset="0%"/>
      <stop offset="100%" stop-color="#fff" stop-opacity="0"/>
    </radialGradient>
    <linearGradient id="C" x1="50.00%" y1="0.00%" x2="50.00%" y2="33.67%">
      <stop stop-color="currentColor" offset="0%"/>
      <stop offset="100%" stop-color="#fcfcfc"/>
    </linearGradient>
  </defs>

  <g transform="translate(0 .24)" clip-path="url(#A)">
    <path d="M1869.06 727.22c121.37-252.55 15.01-555.67-237.55-677.04-252.55-121.37-555.68-15.02-677.04 237.54l-4.28 9.13c-2.75-1.58-5.56-3.06-8.41-4.43a125.6 125.6 0 0 0-156.2 39.68c-79.71-20.62-165.46 17.18-202.47 94.21a177.2 177.2 0 0 0-3.59 7.95c-45.37-21.36-97.18-13.2-133.52 16.83-4.91-13.66-15-24.83-28.09-31.1-26.74-12.85-58.7-2.28-72.64 23.56-4.86-5.71-10.96-10.5-18.14-13.95-9.68-4.67-20.5-6.41-31.16-5.01a55.3 55.3 0 0 0-28.2-68.31c-11.98-5.77-25.02-6.83-37.01-3.9a115.5 115.5 0 0 0-65.14-94.84c-57.53-27.62-126.55-3.4-154.21 54.11-27.61 57.53-3.39 126.54 54.11 154.2 8.51 4.1 17.49 7.14 26.74 9.06-27.91 60.82-2.02 133.04 58.55 162.15 36.42 17.49 77.18 15.47 110.42-1.93 7.98 35.44 31.49 67.02 66.77 83.98a123.1 123.1 0 0 0 160.93-51.32 125.7 125.7 0 0 0 131.78-37.45c12.91 12.2 27.9 22.66 44.78 30.77 87.58 42.08 192.71 5.2 234.79-82.39a176.3 176.3 0 0 0 7-16.67c18.39 168.47 120.74 323.91 284.72 402.71 252.56 121.37 555.68 15.02 677.06-237.54z" fill="url(#B)"/>
    <g transform="translate(0 243.28)">
      <path d="M1721.22 677.22c113.02-235.19 13.98-517.48-221.21-630.5-168.38-80.91-360.91-53.13-498.16 55.49-12.12-13.34-26.95-24.61-44.2-32.9-71.6-34.4-157.54-4.25-191.94 67.34a144.2 144.2 0 0 0-6.13 14.78c-71.68-7.32-143.46 30.19-176.47 98.88a182.8 182.8 0 0 0-3.59 7.96c-45.37-21.37-97.18-13.21-133.52 16.82a55.2 55.2 0 0 0-28.09-31.1c-26.74-12.85-58.7-2.28-72.64 23.56-4.86-5.71-10.96-10.5-18.14-13.95-9.68-4.67-20.5-6.41-31.16-5a55.3 55.3 0 0 0-28.2-68.32 55 55 0 0 0-37.01-3.9 115.5 115.5 0 0 0-65.14-94.84c-57.53-27.62-126.55-3.4-154.21 54.11-27.61 57.53-3.39 126.55 54.11 154.2 8.51 4.1 17.49 7.14 26.74 9.06-27.91 60.82-2.02 133.04 58.55 162.15 36.42 17.49 77.18 15.47 110.42-1.93 7.98 35.44 31.49 67.02 66.77 83.98 59.1 28.39 129.63 5.37 160.93-51.32a125.7 125.7 0 0 0 131.78-37.45c12.91 12.2 27.9 22.66 44.78 30.77 51.9 24.94 109.97 22.15 157.42-2.5 3.8 172.19 101.95 336.1 267.82 415.81 235.19 113.01 517.46 13.98 630.49-221.2z" fill="url(#C)"/>
    </g>
  </g>
</svg>
