<?xml version="1.0" encoding="UTF-8"?>

<svg xmlns="http://www.w3.org/2000/svg" height="32" viewBox="0 0 32 24">
  <title>
    Gmail
  </title>

  <path d="M29.52 23.09H1.98C.9 23.09 0 22.23 0 21.14V2.07C0 .99.89.1 1.98.1h27.54a2 2 0 0 1 1.98 1.98v19.03c-.02 1.12-.9 1.98-1.98 1.98z" fill="#f2f2f2"/>
  <path d="M3.94 23.09l11.79-8.63.07-.5L3.64 5.23l-.02 17.43z" fill="#221f1f" opacity=".1"/>
  <g fill="#d44c3d">
    <path d="M1.98 23.09C.89 23.09 0 22.23 0 21.14V2.05C0 .95.89.75 1.98.75s1.97.23 1.97 1.3v21.04z"/>
    <path d="M1.98 1.06c1.4 0 1.67.42 1.67 1v20.76H1.98a1.7 1.7 0 0 1-1.19-.49c-.31-.32-.49-.75-.49-1.19V2.06c-.02-.6.28-1 1.68-1zm0-.28C.89.78 0 1.01 0 2.06v19.05c0 .53.2 1.04.57 1.41.38.37.88.58 1.41.57h1.97V2.06C3.94.98 3.08.78 1.98.78zm27.54.28c1.28 0 1.68.25 1.68.95v19.16c0 .44-.17.87-.49 1.18-.31.32-.74.49-1.19.49h-1.67V2.01c-.02-.73.4-.95 1.67-.95zm0-.28c-1.09 0-1.97.15-1.97 1.23v21.11h1.97c.53 0 1.03-.21 1.41-.58.37-.37.58-.88.57-1.4V1.98C31.48.9 30.6.78 29.52.78z"/>
    <path d="M29.53 23.09h-1.98V2.01c0-1.11.89-1.23 1.98-1.23s1.97.15 1.97 1.23v19.16c-.02 1.07-.9 1.92-1.97 1.92z"/>
  </g>
  <path d="M21.1 23.09L.18 2.89l1.1.45 14.58 10.49 15.65-11.5v18.84c0 .52-.22 1.01-.59 1.38s-.87.57-1.39.57z" fill="#221f1f" opacity=".08"/>
  <g fill="#d44c3d">
    <path d="M15.72 14.49L.86 3.71A2 2 0 0 1 .38.93C1.04.05 2.29-.14 3.18.51l12.56 9.13L28.38.38c.88-.65 2.1-.45 2.75.45.65.89.45 2.1-.45 2.75z"/>
    <path d="M29.53.3c.52 0 1.04.25 1.37.7.53.76.37 1.81-.37 2.37L15.71 14.14 1.03 3.48C.27 2.93.07 1.85.59 1.12c.3-.45.83-.73 1.4-.73.38 0 .72.1 1 .33l12.53 9.11.18.09.17-.09L28.5.58c.31-.18.66-.28 1.03-.28zm0-.3c-.41 0-.83.1-1.16.37L15.74 9.63 3.15.48C2.83.23 2.4.1 1.98.1A2.1 2.1 0 0 0 .35.93c-.63.89-.38 2.1.5 2.75l14.86 10.81L30.67 3.58a2 2 0 0 0 .46-2.75c-.41-.53-1-.83-1.6-.83z"/>
  </g>
</svg>
