<?xml version="1.0" encoding="UTF-8"?>

<svg xmlns="http://www.w3.org/2000/svg" height="32" viewBox="0 0 32 32">
	<title>
    Home
	</title>

	<path d="M26.7 32H5.26c-.57 0-1.04-.46-1.04-1.04v-15.5c0-.27.11-.54.31-.74 3.77-3.77 6.93-6.64 10.7-10.41.21-.21.48-.31.75-.31.26 0 .52.1.73.31 3.78 3.78 6.94 6.67 10.73 10.46.19.2.3.46.3.74v15.45c0 .58-.47 1.04-1.04 1.04z" fill="#e6f3ff"/>
	<path d="M16.71 4.31c-.21-.21-.46-.31-.73-.31v28h.01H26.7c.57 0 1.04-.46 1.04-1.04V15.51c0-.28-.11-.54-.31-.74-3.78-3.79-6.94-6.68-10.72-10.46z" fill="#cfdbe6"/>
	<path d="M20.85 32H11.1v-9.4c0-.57.47-1.04 1.04-1.04h7.66c.58 0 1.05.47 1.05 1.04V32z" fill="#1f63ad"/>
	<path d="M19.81 21.56h-3.83V32h4.87v-9.4c0-.57-.47-1.04-1.04-1.04z" fill="#004999"/>
	<path d="M15.99 16.68c-1.72 0-3.13-1.4-3.13-3.13 0-1.72 1.41-3.13 3.13-3.13 1.73 0 3.13 1.41 3.13 3.13 0 1.73-1.4 3.13-3.13 3.13z" fill="#2ee6e6"/>
	<path d="M15.99 10.42l-.01 6.26c1.74 0 3.14-1.4 3.14-3.13 0-1.72-1.4-3.13-3.13-3.13z" fill="#26bfbf"/>
	<path d="M31.35 14.52L17.44.61C17.04.2 16.51 0 15.98 0a2.1 2.1 0 0 0-1.49.61L.61 14.49a2.1 2.1 0 0 0 0 2.96 2.1 2.1 0 0 0 2.95 0L15.98 5.04l12.41 12.43a2.1 2.1 0 0 0 2.96 0 2.1 2.1 0 0 0 0-2.95z" fill="#ff4b26"/>
	<path d="M17.45.61C17.04.2 16.51 0 15.98 0v5.04L28.4 17.47a2.1 2.1 0 0 0 2.95 0 2.1 2.1 0 0 0 0-2.96L17.45.61z" fill="#d93f21"/>
</svg>