<?xml version="1.0" encoding="UTF-8"?>

<svg xmlns="http://www.w3.org/2000/svg"
	xmlns:xlink="http://www.w3.org/1999/xlink" height="32" viewBox="0 0 18 32">
	<title>
    Mobile Phone
	</title>

	<path d="M17.8 30.29c0 .93-.75 1.68-1.68 1.68H1.68c-.93 0-1.68-.75-1.68-1.68V1.68C0 .75.75 0 1.68 0h14.44c.93 0 1.68.75 1.68 1.68v28.61z" fill="#555a53"/>
	<path d="M16.12 30.27H1.68c-.93 0-1.68-.75-1.68-1.68v1.7c0 .93.75 1.68 1.68 1.68h14.44c.93 0 1.68-.75 1.68-1.68v-1.7c0 .93-.75 1.68-1.68 1.68z" opacity=".15"/>
	<path d="M1.65 4.14h14.5V26.6H1.65z" fill="#54a2bd"/>
	<path d="M5.46 4.14H1.65v3.81l3.81-3.81zm10.69 1.71V4.14h-3.92L1.65 14.72v5.63l14.5-14.5z" opacity=".2" fill="#ffffff"/>
	<path d="M1.65 4.14V26.6h14.5V4.14H1.65zm13.8 21.36H2.36V4.65h13.09V25.5z" opacity=".15"/>
	<use xlink:href="#B" opacity=".15"/>
	<g fill="#a6b3a4">
		<use xlink:href="#B" y="-0.29"/>
		<path d="M7.4 29.33a1.5 1.5 0 1 1 3 0 1.5 1.5 0 1 1-3 0z"/>
	</g>
	<path d="M8.9 30.09c-.68 0-1.28-.47-1.45-1.13-.03.12-.05.25-.05.37a1.5 1.5 0 1 0 3 0 1.5 1.5 0 0 0-.05-.37c-.17.66-.77 1.13-1.45 1.13z" opacity=".15"/>
	<defs >
		<path id="B" d="M12.73 2.61c0 .26-.22.48-.48.48H5.56c-.27 0-.48-.22-.48-.48h0c0-.26.21-.48.48-.48h6.69c.26 0 .48.22.48.48h0z"/>
	</defs>
</svg>
